<?xml version="1.0" encoding="UTF-8"?>
<svg id="Layer_2" data-name="Layer 2" xmlns="http://www.w3.org/2000/svg" xmlns:xlink="http://www.w3.org/1999/xlink" viewBox="0 0 220.44 168.35">
  <defs>
    <style>
      .cls-1 {
        fill: url(#linear-gradient);
      }

      .cls-2 {
        fill: url(#linear-gradient-8);
      }

      .cls-3 {
        fill: url(#linear-gradient-9);
      }

      .cls-4 {
        fill: url(#linear-gradient-3);
      }

      .cls-5 {
        fill: url(#linear-gradient-4);
      }

      .cls-6 {
        fill: url(#linear-gradient-2);
      }

      .cls-7 {
        fill: url(#linear-gradient-6);
      }

      .cls-8 {
        fill: url(#linear-gradient-7);
      }

      .cls-9 {
        fill: url(#linear-gradient-5);
      }

      .cls-10 {
        fill: url(#linear-gradient-13);
      }

      .cls-11 {
        fill: url(#linear-gradient-12);
      }

      .cls-12 {
        fill: url(#linear-gradient-10);
      }

      .cls-13 {
        fill: url(#linear-gradient-11);
      }
    </style>
    <linearGradient id="linear-gradient" x1="302.43" y1="8.98" x2="3.77" y2="144.98" gradientUnits="userSpaceOnUse">
      <stop offset="0" stop-color="#8a24e9"/>
      <stop offset=".2" stop-color="#9328e9"/>
      <stop offset=".52" stop-color="#ac34e9"/>
      <stop offset=".93" stop-color="#d548e9"/>
      <stop offset=".99" stop-color="#dd4cea"/>
    </linearGradient>
    <linearGradient id="linear-gradient-2" x1="310.08" y1="25.79" x2="11.42" y2="161.79" xlink:href="#linear-gradient"/>
    <linearGradient id="linear-gradient-3" x1="313.82" y1="33.99" x2="15.15" y2="169.99" xlink:href="#linear-gradient"/>
    <linearGradient id="linear-gradient-4" x1="320.57" y1="48.82" x2="21.9" y2="184.82" xlink:href="#linear-gradient"/>
    <linearGradient id="linear-gradient-5" x1="325.68" y1="60.04" x2="27.01" y2="196.04" xlink:href="#linear-gradient"/>
    <linearGradient id="linear-gradient-6" x1="323.36" y1="54.95" x2="24.69" y2="190.95" xlink:href="#linear-gradient"/>
    <linearGradient id="linear-gradient-7" x1="330.12" y1="69.79" x2="31.45" y2="205.79" xlink:href="#linear-gradient"/>
    <linearGradient id="linear-gradient-8" x1="333.64" y1="77.52" x2="34.98" y2="213.52" xlink:href="#linear-gradient"/>
    <linearGradient id="linear-gradient-9" x1="340.57" y1="92.75" x2="41.91" y2="228.75" xlink:href="#linear-gradient"/>
    <linearGradient id="linear-gradient-10" x1="281.64" y1="-36.67" x2="-17.02" y2="99.33" xlink:href="#linear-gradient"/>
    <linearGradient id="linear-gradient-11" x1="261.15" y1="-81.66" x2="-37.51" y2="54.34" xlink:href="#linear-gradient"/>
    <linearGradient id="linear-gradient-12" x1="285.99" y1="-27.12" x2="-12.68" y2="108.88" xlink:href="#linear-gradient"/>
    <linearGradient id="linear-gradient-13" x1="306.48" y1="17.87" x2="7.81" y2="153.87" xlink:href="#linear-gradient"/>
  </defs>
  <g id="Layer_1-2" data-name="Layer 1">
    <g>
      <path class="cls-1" d="m13.27,126.45H0v4.93h4.38v22.72H0v4.93h13.27c4.34,0,7.67-1.1,9.96-3.31,2.3-2.2,3.45-5.51,3.45-9.92v-6.15c0-4.41-1.15-7.71-3.45-9.92-2.3-2.2-5.62-3.31-9.96-3.31Zm7.82,19.55c0,2.58-.64,4.55-1.91,5.91-1.27,1.37-3.23,2.05-5.87,2.05h-3.35v-22.44h3.35c2.64,0,4.59.68,5.87,2.03,1.27,1.35,1.91,3.34,1.91,5.98v6.47Z"/>
      <path class="cls-6" d="m48.46,136.85c-1.68-.98-3.63-1.47-5.87-1.47s-4.27.49-6.01,1.47c-1.74.98-3.09,2.35-4.05,4.12-.96,1.77-1.44,3.86-1.44,6.29v.56c0,2.39.49,4.48,1.47,6.26.98,1.78,2.34,3.17,4.1,4.14,1.75.98,3.78,1.47,6.08,1.47,2.08,0,3.8-.33,5.17-1,1.37-.67,2.46-1.47,3.28-2.42.82-.95,1.45-1.84,1.89-2.68l-4.42-2.28c-.44.96-1.07,1.82-1.91,2.58-.84.76-2.13,1.14-3.86,1.14s-3.26-.54-4.47-1.63c-1.21-1.09-1.85-2.53-1.91-4.33h17.27v-1.91c0-2.36-.47-4.42-1.4-6.19-.93-1.77-2.23-3.14-3.91-4.12Zm-11.92,8.17c.25-1.52.88-2.73,1.91-3.63,1.02-.9,2.39-1.35,4.1-1.35s2.99.45,4.03,1.35c1.04.9,1.62,2.11,1.75,3.63h-11.78Z"/>
      <path class="cls-4" d="m71.32,125.8c-3.97,0-7.14,1.13-9.5,3.38-2.36,2.25-3.54,5.49-3.54,9.71v7.73c0,2.82.54,5.21,1.61,7.15,1.07,1.94,2.51,3.41,4.33,4.42,1.82,1.01,3.87,1.51,6.17,1.51,1.68,0,3-.2,3.98-.61.98-.4,1.73-.91,2.26-1.51.53-.61.92-1.19,1.16-1.75h.79v3.21h5.12v-16.39h-13.73v4.75h8.24v.56c0,1.99-.54,3.62-1.63,4.89-1.09,1.27-2.81,1.91-5.17,1.91s-4.2-.73-5.52-2.19c-1.32-1.46-1.98-3.41-1.98-5.87v-7.91c0-2.48.66-4.43,1.98-5.84,1.32-1.41,3.13-2.12,5.42-2.12,1.55,0,2.84.29,3.86.86,1.02.57,1.78,1.36,2.28,2.35.5.99.74,2.11.74,3.35v.37h5.49v-.19c0-3.6-1.07-6.46-3.21-8.59-2.14-2.13-5.2-3.19-9.17-3.19Z"/>
      <path class="cls-5" d="m109.22,153.22v-9.03c0-2.86-.86-5.04-2.58-6.54-1.72-1.51-4.09-2.26-7.1-2.26-1.99,0-3.66.3-5.03.91-1.37.61-2.46,1.4-3.28,2.4-.82.99-1.42,2.09-1.79,3.31l4.93,1.63c.25-1.15.77-2.09,1.56-2.82.79-.73,1.96-1.09,3.52-1.09s2.75.38,3.49,1.14c.74.76,1.12,1.75,1.12,2.96v1.4h-6.66c-1.71,0-3.23.27-4.56.81-1.33.54-2.38,1.34-3.14,2.4-.76,1.06-1.14,2.36-1.14,3.91s.38,2.92,1.14,4c.76,1.09,1.79,1.92,3.1,2.49,1.3.57,2.76.86,4.38.86s2.89-.23,3.84-.68c.95-.45,1.65-.98,2.12-1.61.47-.62.79-1.15.98-1.58h.79v.09c0,.96.36,1.72,1.07,2.28.71.56,1.63.84,2.75.84h3.77v-4.42h-1.96c-.87,0-1.3-.47-1.3-1.4Zm-5.17-3.49c0,1.71-.56,3.07-1.68,4.07-1.12,1.01-2.56,1.51-4.33,1.51-1.3,0-2.33-.29-3.07-.86-.74-.57-1.12-1.33-1.12-2.26s.36-1.69,1.07-2.19c.71-.5,1.64-.74,2.79-.74h6.33v.47Z"/>
      <path class="cls-9" d="m146.3,136.55c-1.16-.62-2.46-.93-3.89-.93-1.83,0-3.24.34-4.24,1.02-.99.68-1.75,1.55-2.28,2.61h-.74c-.53-1.05-1.3-1.92-2.33-2.61-1.02-.68-2.37-1.02-4.05-1.02-1.58,0-2.85.3-3.79.91-.95.61-1.62,1.3-2.03,2.07h-.79v-2.56h-5.26v23h5.35v-13.64c0-1.71.4-3.02,1.21-3.93.81-.92,1.92-1.37,3.35-1.37,1.27,0,2.27.35,2.98,1.05.71.7,1.07,1.72,1.07,3.05v14.85h5.31v-13.64c0-1.71.41-3.02,1.23-3.93.82-.92,1.93-1.37,3.33-1.37,1.27,0,2.27.35,2.98,1.05.71.7,1.07,1.72,1.07,3.05v14.85h5.35v-15.22c0-1.8-.35-3.31-1.05-4.52-.7-1.21-1.63-2.13-2.79-2.75Z"/>
      <path class="cls-7" d="m159.36,126.12c-.96,0-1.79.32-2.49.95-.7.64-1.05,1.48-1.05,2.54s.35,1.9,1.05,2.54c.7.64,1.53.95,2.49.95,1.02,0,1.87-.32,2.54-.95.67-.64,1-1.48,1-2.54s-.33-1.9-1-2.54c-.67-.64-1.51-.95-2.54-.95Z"/>
      <rect class="cls-8" x="156.7" y="136.04" width="5.35" height="23"/>
      <path class="cls-2" d="m186.59,136.83c-1.37-.81-2.93-1.21-4.7-1.21-2.14,0-3.74.39-4.8,1.16-1.06.78-1.79,1.6-2.19,2.47h-.79v-3.21h-5.26v23h5.35v-11.64c0-2.33.54-4.12,1.63-5.38,1.09-1.26,2.58-1.89,4.47-1.89,1.68,0,2.97.46,3.89,1.37.92.92,1.37,2.3,1.37,4.17v13.36h5.35v-13.78c0-1.96-.38-3.65-1.14-5.07-.76-1.43-1.82-2.54-3.19-3.35Z"/>
      <path class="cls-3" d="m215.22,136.04v3.03h-.79c-.53-.9-1.36-1.74-2.49-2.51-1.13-.78-2.79-1.16-4.96-1.16-1.92,0-3.69.46-5.31,1.37-1.61.92-2.9,2.23-3.86,3.96-.96,1.72-1.44,3.79-1.44,6.22v.7c0,2.42.48,4.49,1.44,6.22.96,1.72,2.25,3.04,3.86,3.96,1.61.92,3.38,1.37,5.31,1.37,1.46,0,2.67-.19,3.63-.56.96-.37,1.74-.83,2.33-1.37.59-.54,1.05-1.08,1.4-1.61h.79v6.66c0,.93-.45,1.4-1.35,1.4h-13.64v4.66h15.46c1.49,0,2.67-.44,3.54-1.33.87-.88,1.3-2.09,1.3-3.61v-27.37h-5.21Zm-.05,11.45c0,2.2-.64,3.92-1.91,5.14-1.27,1.23-2.87,1.84-4.8,1.84s-3.53-.61-4.82-1.84c-1.29-1.23-1.93-2.94-1.93-5.14v-.47c0-2.23.64-3.96,1.93-5.17,1.29-1.21,2.89-1.82,4.82-1.82s3.56.61,4.82,1.82c1.26,1.21,1.89,2.93,1.89,5.17v.47Z"/>
      <polygon class="cls-12" points="62.98 62.98 94.47 62.98 94.47 31.49 62.98 31.49 62.98 62.81 31.49 62.81 31.49 94.3 62.98 94.3 62.98 62.98"/>
      <rect class="cls-13" x="31.49" width="31.49" height="31.49"/>
      <polygon class="cls-11" points="157.46 31.49 188.95 31.49 188.95 0 157.46 0 157.46 31.32 125.96 31.32 125.96 62.81 157.46 62.81 157.46 31.49"/>
      <rect class="cls-10" x="157.46" y="62.81" width="31.49" height="31.49"/>
    </g>
  </g>
</svg>