<svg width="1511" height="658" viewBox="0 0 1511 658" fill="none" xmlns="http://www.w3.org/2000/svg">
<g clip-path="url(#clip0_2843_3261)">
<path fill-rule="evenodd" clip-rule="evenodd" d="M132.327 247.065V117.904L196.491 63.3597H302.923L363.531 113.378L422.376 63.3597H501.325L557.26 109.528L557.554 63.3597H654.168V96.4507L666.102 63.5067C744.434 63.5067 822.472 63.3597 900.862 63.3597L959.354 113.084L1017.85 63.3597H1124.28L1177.3 107.148L1177.21 0.0283203H1274.71L1276.18 63.3597H1322.33L1386.52 117.933L1385.4 301.609L1385.08 325.237H1446.81L1511 379.811L1509.88 563.487L1461.47 595.931L1371.62 595.784L1371.91 582.236L1351.46 595.784H1269.8L1270.13 558.785L1212.9 596.666H1137.12L1110.35 573.861L1088.24 595.931H1002.3L1001.94 450.989H986.043V570.599L966.732 595.902H881.904V450.96H861.535L861.035 595.49L693.613 595.549L640.5 559.461V596.637H506.557L452.915 557.697L452.562 657.999H364.648L337.754 634.606V595.285H311.212L264.418 560.254L264.36 595.285L105.638 595.667L0 516.583V372.141L64.635 325.208H133.062L132.327 247.035V247.065Z" fill="url(#paint0_linear_2843_3261)"/>
<path fill-rule="evenodd" clip-rule="evenodd" d="M200.432 74.0283H299.104L358.213 122.842V165.807H278.117V126.633H221.389V238.337H278.117V199.134H358.213V242.099L299.104 290.913H200.432L143.027 242.099V122.842L200.432 74.0283Z" fill="white"/>
<path fill-rule="evenodd" clip-rule="evenodd" d="M426.314 74.0283H497.475L556.584 122.842V210.154H478.546V125.928H445.214V290.913H369.91L368.91 122.842L426.314 74.0283Z" fill="white"/>
<path fill-rule="evenodd" clip-rule="evenodd" d="M624.541 290.913H755.016L754.81 74.2046H676.772V239.013H643.441V74.0283H568.136L567.137 242.099L624.541 290.913Z" fill="white"/>
<path fill-rule="evenodd" clip-rule="evenodd" d="M896.893 74.0283H766.418L766.624 290.766H844.662V125.928H877.993V290.913H953.298L954.297 122.842L896.893 74.0283Z" fill="white"/>
<path fill-rule="evenodd" clip-rule="evenodd" d="M1021.72 74.0283H1120.4L1179.54 122.842V165.807H1099.44V126.633H1042.71V238.337H1099.44V199.134H1179.54V242.099L1120.4 290.913H1021.72L964.32 242.099V122.842L1021.72 74.0283Z" fill="white"/>
<path fill-rule="evenodd" clip-rule="evenodd" d="M1318.39 74.0287H1265.72L1264.25 10.6973H1187.91L1188.09 290.766H1266.13V125.928H1299.49V290.913H1374.76L1375.79 122.842L1318.39 74.0287Z" fill="white"/>
<path fill-rule="evenodd" clip-rule="evenodd" d="M492.537 552.82H623.012L622.806 336.082H544.768V502.684H511.437V335.936H436.162L435.133 511.148L492.537 552.82Z" fill="white"/>
<path fill-rule="evenodd" clip-rule="evenodd" d="M1442.87 335.936H1312.39L1312.6 552.644H1390.63V387.835H1423.97V552.82H1499.27L1500.27 384.749L1442.87 335.936Z" fill="white"/>
<path fill-rule="evenodd" clip-rule="evenodd" d="M899.009 299.847H975.342V335.524H1012.14V376.462H975.342V552.085H899.009V376.462H862.18V335.524H899.009V299.847Z" fill="white"/>
<path fill-rule="evenodd" clip-rule="evenodd" d="M1022.99 397.151H1099.29V552.056H1022.99V397.151ZM1022.99 335.524H1099.29V364.736H1022.99V335.524Z" fill="white"/>
<path fill-rule="evenodd" clip-rule="evenodd" d="M147.406 377.108V423.16H87.9731V377.108H147.406ZM68.1035 335.936L10.6992 377.608V511.148L68.1035 552.82H225.796L225.885 503.007H88.414V469.681H225.885V377.637L166.746 335.965H68.1035V335.936Z" fill="white"/>
<path fill-rule="evenodd" clip-rule="evenodd" d="M714.1 504.506V459.542H773.533V504.506H714.1ZM793.402 552.82L851.012 552.761L850.806 381.193L793.402 335.965H635.709L635.621 375.139V376.138H773.092V409.465H635.621V514.703L691.174 552.82H793.402Z" fill="white"/>
<path fill-rule="evenodd" clip-rule="evenodd" d="M424.698 335.936V617.503H348.395V552.791H286.905L235.379 514.233V376.55L289.432 335.936H424.698ZM348.395 502.654V375.433H311.712V502.654H348.395Z" fill="white"/>
<path fill-rule="evenodd" clip-rule="evenodd" d="M1249.99 335.936L1299.93 376.285V514.116L1241.44 552.82H1162.11L1110.58 514.263V376.579L1164.64 335.965H1249.96L1249.99 335.936ZM1223.6 503.007V375.786H1186.92V503.007H1223.6Z" fill="white"/>
</g>
<defs>
<linearGradient id="paint0_linear_2843_3261" x1="1216" y1="330.928" x2="223.052" y2="316.535" gradientUnits="userSpaceOnUse">
<stop stop-color="#DB7C22"/>
<stop offset="1" stop-color="#DC6129"/>
</linearGradient>
<clipPath id="clip0_2843_3261">
<rect width="1511" height="658" fill="white"/>
</clipPath>
</defs>
</svg>
